<svg width="64" height="64" viewBox="0 0 64 64" fill="none" xmlns="http://www.w3.org/2000/svg">
<rect width="64" height="64" fill="black"/>
<path d="M28.2805 49.9235C28.2805 50.4976 26.576 50.7847 23.1671 50.7847C19.7224 50.7847 18 50.5156 18 49.9773V14.8839C18 13.628 18.6638 13 19.9915 13H30.272C39.7092 13 44.4278 16.678 44.4278 24.034C44.4278 26.2587 43.9972 28.2861 43.136 30.1161C42.2748 31.9103 41.0548 33.3456 39.4759 34.4221L46.2578 45.7252C45.9707 46.5864 45.0378 47.5732 43.4589 48.6856C41.306 50.2285 39.5297 51 38.1303 51C36.7309 51 35.6903 50.4976 35.0085 49.4929L29.949 37.7054H28.2805V49.9235ZM28.2805 22.5269V30.6006H28.5496C31.9585 30.6006 33.6629 29.1832 33.6629 26.3484C33.6629 25.0567 33.322 24.1058 32.6402 23.4958C31.9943 22.8499 30.9178 22.5269 29.4108 22.5269H28.2805Z" fill="#CEFF00"/>
</svg>
